<svg xmlns="http://www.w3.org/2000/svg" viewBox="0 0 311.03 311.03">
  <defs>
    <style>
      .cls-1 {
        fill: #fff;
      }

      .cls-2 {
        fill: none;
        stroke: #fff;
        stroke-miterlimit: 10;
        stroke-width: 17px;
      }
    </style>
  </defs>
  <title>Asset 1</title>
  <g id="Layer_2" data-name="Layer 2">
    <g id="Layer_2-2" data-name="Layer 2">
      <path class="cls-1" d="M106.81,71.3S68.57,108,62.24,170.53,66.76,227,66.76,227c5.89-.66,21.25-11.64,30.54-14.12C108,210,125.64,201.7,131.81,191.31s11.76-33.09,11.75-68.51a41.64,41.64,0,0,0-4.37-17.32c-3.13-5.84-2.55-16.71-2.26-24.39C137.34,70.13,130.56,50,106.81,71.3Z"/>
      <path class="cls-1" d="M198.24,71.3s38.25,36.74,44.58,99.23S238.3,227,238.3,227c-5.89-.66-21.25-11.64-30.54-14.12-10.68-2.86-28.34-11.18-34.51-21.57s-11.76-33.09-11.75-68.51a41.49,41.49,0,0,1,4.37-17.32c3.13-5.84,2.54-16.71,2.26-24.39C167.72,70.13,174.5,50,198.24,71.3Z"/>
      <circle class="cls-2" cx="155.51" cy="155.51" r="147.01"/>
    </g>
  </g>
</svg>
